<svg xmlns="http://www.w3.org/2000/svg" viewBox="0 0 32 32">
  <!-- dark background -->
  <rect width="32" height="32" rx="5" fill="#0f0f0f"/>
  <!-- candle body -->
  <rect x="13" y="21" width="6" height="9" rx="1" fill="#c8b89a"/>
  <!-- wick -->
  <line x1="16" y1="21" x2="16" y2="18" stroke="#5a4a3a" stroke-width="1.2" stroke-linecap="round"/>
  <!-- outer flame -->
  <path d="M16 4 C13 9 10.5 13 10.5 16.5 C10.5 20.5 13 23 16 23 C19 23 21.5 20.5 21.5 16.5 C21.5 13 19 9 16 4Z" fill="#c87820"/>
  <!-- mid flame -->
  <path d="M16 8 C14 12 12.5 14.5 12.5 17 C12.5 19.5 14 21.5 16 21.5 C18 21.5 19.5 19.5 19.5 17 C19.5 14.5 18 12 16 8Z" fill="#e8a030"/>
  <!-- inner flame -->
  <path d="M16 12 C15 14.5 14.5 16 14.5 17.5 C14.5 19 15.1 20 16 20 C16.9 20 17.5 19 17.5 17.5 C17.5 16 17 14.5 16 12Z" fill="#f5d060"/>
</svg>
